<!-- <svg
          width="14"
          height="18"
          viewBox="0 0 14 18"
          fill="none"
          xmlns="http://www.w3.org/2000/svg"
        >
          <path
            d="M13.5545 6.1362C13.4548 6.2172 11.6936 7.2558 11.6936 9.5652C11.6936 12.2364 13.9346 13.1814 14.0017 13.2048C13.9914 13.2624 13.6457 14.499 12.8201 15.759C12.084 16.8678 11.3152 17.9748 10.1457 17.9748C8.97617 17.9748 8.67518 17.2638 7.32506 17.2638C6.00934 17.2638 5.54152 17.9982 4.47174 17.9982C3.40197 17.9982 2.65553 16.9722 1.7973 15.7122C0.803194 14.2326 0 11.934 0 9.7524C0 6.2532 2.17396 4.3974 4.31351 4.3974C5.45037 4.3974 6.39803 5.1786 7.11179 5.1786C7.79115 5.1786 8.85061 4.3506 10.144 4.3506C10.6342 4.3506 12.3953 4.3974 13.5545 6.1362ZM9.52997 2.8692C10.0649 2.205 10.4432 1.2834 10.4432 0.3618C10.4432 0.234 10.4329 0.1044 10.4106 0C9.54029 0.0342 8.50491 0.6066 7.88059 1.3644C7.39042 1.9476 6.93292 2.8692 6.93292 3.8034C6.93292 3.9438 6.95528 4.0842 6.9656 4.1292C7.02064 4.14 7.11007 4.1526 7.19951 4.1526C7.98034 4.1526 8.96241 3.6054 9.52997 2.8692Z"
            fill="white"
            fillOpacity="0.8"
          />
        </svg> -->
        <svg width="911" height="912" viewBox="0 0 911 912" fill="none" xmlns="http://www.w3.org/2000/svg">
<mask id="mask0_140_5" style="mask-type:luminance" maskUnits="userSpaceOnUse" x="10" y="0" width="901" height="900">
<path d="M10.8181 0H910.818V900H10.8181V0Z" fill="white"/>
</mask>
<g mask="url(#mask0_140_5)">
<path d="M468.743 320.782V246.992C689.785 241.226 865.653 163.301 865.653 69.5322C865.653 43.976 852.561 21.3072 830.814 0.0634766C881.694 32.6416 910.818 72.4197 910.818 115.067C910.818 174.645 854.04 227.192 762.605 265.526C723.337 284.06 692.734 289.638 692.734 289.638C646.272 302.417 593.922 312.317 538.613 316.638V514.067L608.484 474.298L692.734 427.498V303.86C692.734 303.86 723.337 298.104 762.605 279.748V465.654L692.734 505.432L622.863 545.023L538.613 591.813V764.951L622.863 698.36V560.679L692.734 520.91V733.638L468.743 899.932V320.782ZM451.414 320.782V246.992C230.381 241.413 55.8008 163.301 55.8008 69.5322C55.8008 43.976 67.4139 21.3072 89.1704 0.0634766C39.9421 32.6416 10.8181 72.4197 10.8181 115.067C10.8181 174.645 67.5964 227.192 157.744 265.526C197.012 284.06 228.902 289.638 228.902 289.638C273.885 302.417 326.245 312.317 381.544 316.638V514.067L311.683 474.298L228.72 427.498V303.86C228.72 303.86 196.647 298.104 157.562 279.748V465.654L228.72 505.432L298.59 545.201L381.544 591.992V765.129L298.59 698.36V560.679L228.72 520.91V733.638L451.414 899.932V320.782Z" fill="white"/>
</g>
</svg>
